<svg width="1200px" height="1200px" viewBox="0 0 1200 1200" version="1.1" xmlns="http://www.w3.org/2000/svg" xmlns:xlink="http://www.w3.org/1999/xlink" preserveAspectRatio="xMidYMid"><g><path fill="#092E20" x="0" y="0" width="256" height="256" rx="28" d="M131.25 0H1068.75A131.25 131.25 0 0 1 1200 131.25V1068.75A131.25 131.25 0 0 1 1068.75 1200H131.25A131.25 131.25 0 0 1 0 1068.75V131.25A131.25 131.25 0 0 1 131.25 0z"/><path d="M873.642 441.553v310.434c0 106.969 -7.828 158.269 -31.303 202.617 -21.745 42.619 -50.442 69.572 -109.57 99.141l-124.359 -59.133c59.137 -27.825 87.834 -52.172 106.092 -89.578 19.134 -38.255 25.228 -82.608 25.228 -199.13V441.553h133.912Zm-213.042 -206.813v619.87c-68.695 13.041 -119.133 18.258 -173.916 18.258 -163.486 0 -248.705 -73.908 -248.705 -215.658 0 -136.528 90.441 -225.22 230.437 -225.22 21.741 0 38.264 1.734 58.266 6.952V234.75h133.922Zm-179.133 305.072c-67.828 0 -106.964 41.742 -106.964 114.783 0 71.316 37.397 110.442 106.097 110.442 14.775 0 26.953 -0.867 46.083 -3.469v-214.805c-15.652 -5.213 -28.692 -6.952 -45.216 -6.952Zm392.175 -304.359v137.4h-133.912V235.458h133.912Z" fill="#FFFFFD"/></g></svg>